<svg xmlns="http://www.w3.org/2000/svg" viewBox="0 0 340 230" role="img" aria-label="Bridge Rise"><defs><linearGradient id="silver" x1="0" y1="0" x2="1" y2="1"><stop stop-color="#fafafa"/><stop offset=".4" stop-color="#d7dcda"/><stop offset=".72" stop-color="#abb3af"/><stop offset="1" stop-color="#f4f5f4"/></linearGradient><linearGradient id="green" x1="0" x2="1"><stop stop-color="#09956b"/><stop offset=".52" stop-color="#10c98f"/><stop offset="1" stop-color="#16dca0"/></linearGradient></defs><g transform="translate(8 4)"><path d="M18 18h88c46 0 70 17 70 49 0 23-14 38-42 44 33 6 49 24 49 51 0 37-27 55-79 55H18V18Z" fill="url(#silver)"/><path d="M51 53h50c22 0 33 8 33 23s-11 23-33 23H51V53Zm0 78h55c24 0 36 8 36 25 0 17-12 26-36 26H51v-51Z" fill="#09261d"/><path d="M150 18h85c50 0 75 19 75 57 0 27-14 44-43 52l51 90h-48l-45-82h-33v82h-42V18Z" fill="url(#green)"/><path d="M192 54h40c24 0 36 8 36 24s-12 24-36 24h-40V54Z" fill="#09261d"/><path d="M8 184c60-41 108-65 160-78 51 12 99 38 145 78" fill="none" stroke="url(#silver)" stroke-width="8" stroke-linecap="round"/><path d="M20 193c54-30 101-49 148-58 49 11 93 31 134 58" fill="none" stroke="#10c98f" stroke-width="4" stroke-linecap="round"/><path d="M168 80v90" stroke="#10c98f" stroke-width="10"/><path d="M168 98 96 173M168 104l-49 69M168 98l72 75M168 104l49 69" fill="none" stroke="url(#silver)" stroke-width="4" stroke-linecap="round"/></g></svg>